<svg width="18" height="16" viewBox="0 0 18 16" fill="none" xmlns="http://www.w3.org/2000/svg">
<path d="M9 0C13.9707 0 18 3.5816 18 8C18 12.4184 13.9707 16 9 16H1.8C1.32261 16 0.864773 15.8314 0.527208 15.5314C0.189642 15.2313 0 14.8243 0 14.4V8C0 3.5816 4.0293 0 9 0ZM9 1.6C7.09044 1.6 5.25909 2.27428 3.90883 3.47452C2.55857 4.67475 1.8 6.30261 1.8 8V14.4H9C10.9096 14.4 12.7409 13.7257 14.0912 12.5255C15.4414 11.3253 16.2 9.69739 16.2 8C16.2 6.30261 15.4414 4.67475 14.0912 3.47452C12.7409 2.27428 10.9096 1.6 9 1.6ZM9 9.6C9.22939 9.60023 9.45003 9.6783 9.61683 9.81828C9.78363 9.95825 9.88401 10.1496 9.89746 10.3531C9.9109 10.5567 9.83639 10.7571 9.68916 10.9135C9.54193 11.0698 9.33309 11.1703 9.1053 11.1944L9 11.2H6.3C6.07061 11.1998 5.84997 11.1217 5.68317 10.9817C5.51637 10.8417 5.41599 10.6504 5.40254 10.4469C5.3891 10.2433 5.46361 10.0429 5.61084 9.88653C5.75807 9.73017 5.96691 9.62968 6.1947 9.6056L6.3 9.6H9ZM11.7 6.4C11.9387 6.4 12.1676 6.48429 12.3364 6.63432C12.5052 6.78434 12.6 6.98783 12.6 7.2C12.6 7.41217 12.5052 7.61566 12.3364 7.76569C12.1676 7.91571 11.9387 8 11.7 8H6.3C6.06131 8 5.83239 7.91571 5.6636 7.76569C5.49482 7.61566 5.4 7.41217 5.4 7.2C5.4 6.98783 5.49482 6.78434 5.6636 6.63432C5.83239 6.48429 6.06131 6.4 6.3 6.4H11.7Z" fill="white"/>
</svg>
