<svg width="18" height="16" viewBox="0 0 18 16" fill="none" xmlns="http://www.w3.org/2000/svg">
<path d="M0.818182 1.12889L1.86545 0L15.5455 14.8622L14.5064 16L11.9864 13.2622C11.0455 13.6 10.0473 13.7778 9 13.7778C4.90909 13.7778 1.41545 11.0133 0 7.11111C0.564545 5.54667 1.46455 4.16889 2.61 3.07556L0.818182 1.12889ZM9 4.44444C9.65099 4.44444 10.2753 4.7254 10.7356 5.22549C11.1959 5.72559 11.4545 6.40387 11.4545 7.11111C11.455 7.41384 11.4079 7.71443 11.3155 8L8.18182 4.59556C8.44467 4.4951 8.72135 4.444 9 4.44444ZM9 0.444444C13.0909 0.444444 16.5845 3.20889 18 7.11111C17.3322 8.95396 16.1975 10.5535 14.7273 11.7244L13.5655 10.4533C14.6969 9.603 15.6094 8.45249 16.2164 7.11111C15.5549 5.64439 14.528 4.40868 13.2523 3.54445C11.9766 2.68021 10.5034 2.22211 9 2.22222C8.10818 2.22222 7.23273 2.38222 6.41455 2.66667L5.15455 1.30667C6.33273 0.755555 7.63364 0.444444 9 0.444444ZM1.78364 7.11111C2.44509 8.57783 3.47201 9.81354 4.74769 10.6778C6.02336 11.542 7.49662 12.0001 9 12C9.56455 12 10.1209 11.9378 10.6364 11.8133L8.77091 9.77778C8.20159 9.71148 7.67031 9.43544 7.26543 8.99558C6.86056 8.55571 6.60648 7.97852 6.54545 7.36L3.76364 4.32889C2.95364 5.08444 2.27455 6.02667 1.78364 7.11111Z" fill="#929292"/>
</svg>
