<svg width="20" height="20" viewBox="0 0 20 20" fill="none" xmlns="http://www.w3.org/2000/svg">
<path d="M18.7457 6.25125H15.5227L19.6326 2.14129C19.8678 1.90606 20 1.58701 20 1.25434C20 0.921668 19.8678 0.602622 19.6326 0.367388C19.3974 0.132153 19.0783 0 18.7457 0C18.413 0 18.0939 0.132153 17.8587 0.367388L13.7487 4.46486V1.25434C13.7487 0.923024 13.6171 0.605278 13.3829 0.371002C13.1486 0.136726 12.8308 0.00511152 12.4995 0.00511152C12.1682 0.00511152 11.8505 0.136726 11.6162 0.371002C11.3819 0.605278 11.2503 0.923024 11.2503 1.25434V7.50048C11.2503 7.83179 11.3819 8.14954 11.6162 8.38382C11.8505 8.61809 12.1682 8.74971 12.4995 8.74971H18.7457C19.077 8.74971 19.3947 8.61809 19.629 8.38382C19.8633 8.14954 19.9949 7.83179 19.9949 7.50048C19.9949 7.16916 19.8633 6.85142 19.629 6.61714C19.3947 6.38287 19.077 6.25125 18.7457 6.25125ZM7.50261 11.2482H1.25647C0.925155 11.2482 0.60741 11.3798 0.373134 11.6141C0.138858 11.8483 0.00724345 12.1661 0.00724345 12.4974C0.00724345 12.8287 0.138858 13.1465 0.373134 13.3807C0.60741 13.615 0.925155 13.7466 1.25647 13.7466H4.46699L0.369519 17.8566C0.252431 17.9727 0.159496 18.1109 0.0960746 18.2631C0.0326529 18.4153 0 18.5786 0 18.7435C0 18.9084 0.0326529 19.0717 0.0960746 19.224C0.159496 19.3762 0.252431 19.5143 0.369519 19.6305C0.485651 19.7476 0.623817 19.8405 0.776047 19.9039C0.928277 19.9673 1.09156 20 1.25647 20C1.42138 20 1.58467 19.9673 1.7369 19.9039C1.88913 19.8405 2.02729 19.7476 2.14342 19.6305L6.25338 15.5205V18.7435C6.25338 19.0748 6.385 19.3926 6.61927 19.6269C6.85355 19.8611 7.17129 19.9928 7.50261 19.9928C7.83393 19.9928 8.15167 19.8611 8.38595 19.6269C8.62022 19.3926 8.75184 19.0748 8.75184 18.7435V12.4974C8.75184 12.1661 8.62022 11.8483 8.38595 11.6141C8.15167 11.3798 7.83393 11.2482 7.50261 11.2482Z" fill="white"/>
</svg>
