<svg width="44" height="44" viewBox="0 0 44 44" fill="none" xmlns="http://www.w3.org/2000/svg">
<g clip-path="url(#clip0_1_1095)">
<path d="M20.6365 24.3009H23.5507C23.9487 24.3009 24.2714 24.0151 24.2714 23.6624C24.2714 23.3097 23.9487 23.0238 23.5507 23.0238H20.6365C20.2385 23.0238 19.9158 23.3097 19.9158 23.6624C19.9158 24.0151 20.2384 24.3009 20.6365 24.3009Z" fill="#E82327"/>
<path d="M18.8013 8.0071C18.4987 7.77815 18.0437 7.80982 17.7852 8.07794L10.3006 15.8424C10.0421 16.1105 10.078 16.5137 10.3805 16.7427C10.5163 16.8454 10.6827 16.8956 10.8483 16.8956C11.0519 16.8956 11.2542 16.8197 11.3967 16.6718L18.8813 8.90738C19.1398 8.63921 19.104 8.23613 18.8013 8.0071Z" fill="#E82327"/>
<path d="M10.3698 12.6456C10.5071 12.7537 10.6781 12.8069 10.8483 12.8069C11.0471 12.8069 11.2449 12.7345 11.3872 12.5926L13.4103 10.576C13.6747 10.3123 13.648 9.9088 13.3505 9.67447C13.0528 9.44014 12.5973 9.46395 12.333 9.72756L10.3099 11.7442C10.0456 12.0076 10.0724 12.4113 10.3698 12.6456Z" fill="#E82327"/>
<path d="M39.9411 35.653C39.7449 35.1047 39.1769 34.7363 38.5277 34.7363H14.145C13.747 34.7363 13.4243 35.0221 13.4243 35.3748C13.4243 35.7275 13.747 36.0135 14.145 36.0135H38.5278C38.5458 36.0135 38.5617 36.0237 38.5671 36.0388L40.7878 42.2469C40.7899 42.2531 40.794 42.2646 40.7817 42.2795C40.7694 42.2945 40.7558 42.2945 40.7485 42.2945H3.43709C3.42978 42.2945 3.41623 42.2945 3.40384 42.2795C3.39154 42.2646 3.39557 42.2531 3.39778 42.2469L5.61843 36.0388C5.62392 36.0237 5.63967 36.0135 5.65774 36.0135H10.8917C11.2898 36.0135 11.6124 35.7275 11.6124 35.3748C11.6124 35.0221 11.2898 34.7363 10.8917 34.7363H5.65784C5.00862 34.7363 4.44061 35.1047 4.24447 35.653L2.02382 41.8611C1.87939 42.2648 1.95848 42.6923 2.24081 43.034C2.52313 43.3756 2.9592 43.5716 3.43709 43.5716H40.7484C41.2264 43.5716 41.6623 43.3756 41.9447 43.034C42.2269 42.6923 42.3061 42.2648 42.1616 41.8611L39.9411 35.653Z" fill="#E82327"/>
<path d="M40.9304 0H2.88217C1.29295 0 0 1.14561 0 2.55371V24.1815C0 25.5896 1.29295 26.7352 2.88217 26.7352H17.0338C16.9843 28.0181 16.8421 30.1468 16.5317 31.3404H13.4296C13.0316 31.3404 12.7089 31.6263 12.7089 31.9789C12.7089 32.3316 13.0316 32.6175 13.4296 32.6175H30.3831C30.7812 32.6175 31.1039 32.3316 31.1039 31.9789C31.1039 31.6263 30.7812 31.3404 30.3831 31.3404H27.281C26.9708 30.1468 26.8285 28.0181 26.779 26.7352H40.9306C42.5198 26.7352 43.8127 25.5896 43.8127 24.1815V2.55371C43.8126 1.14561 42.5196 0 40.9304 0ZM18.0034 31.3404C18.3213 29.8968 18.4364 27.7815 18.4756 26.7352H25.337C25.3761 27.7815 25.4911 29.8968 25.8092 31.3404H18.0034ZM42.3711 24.1815C42.3711 24.8853 41.7248 25.458 40.9304 25.458H2.88217C2.08775 25.458 1.44142 24.8853 1.44142 24.1815V21.8672H42.3712L42.3711 24.1815ZM42.3711 20.59H40.4779V11.1641C40.4779 10.8115 40.1552 10.5256 39.7572 10.5256C39.3592 10.5256 39.0365 10.8115 39.0365 11.1641V20.59H4.7761V4.32887C4.7761 4.23581 4.86153 4.16012 4.96656 4.16012H38.846C38.951 4.16012 39.0365 4.23581 39.0365 4.32887V8.24224C39.0365 8.59494 39.3592 8.88086 39.7572 8.88086C40.1552 8.88086 40.4779 8.59494 40.4779 8.24224V4.32887C40.4779 3.53159 39.7458 2.88296 38.846 2.88296H4.96656C4.06673 2.88296 3.33468 3.53159 3.33468 4.32887V20.59H1.44142V2.55371C1.44142 1.84983 2.08775 1.27716 2.88217 1.27716H40.9304C41.7248 1.27716 42.3711 1.84983 42.3711 2.55371V20.59Z" fill="#E82327"/>
<path d="M10.8923 37.3721H9.91435C9.51629 37.3721 9.1936 37.6581 9.1936 38.0107C9.1936 38.3634 9.51629 38.6493 9.91435 38.6493H10.8923C11.2903 38.6493 11.6129 38.3634 11.6129 38.0107C11.6129 37.6581 11.2903 37.3721 10.8923 37.3721Z" fill="#E82327"/>
<path d="M13.8252 38.6493H14.8032C15.2012 38.6493 15.5239 38.3634 15.5239 38.0107C15.5239 37.6581 15.2012 37.3721 14.8032 37.3721H13.8252C13.4272 37.3721 13.1045 37.6581 13.1045 38.0107C13.1045 38.3634 13.4272 38.6493 13.8252 38.6493Z" fill="#E82327"/>
<path d="M17.7386 38.6493H18.7165C19.1146 38.6493 19.4373 38.3634 19.4373 38.0107C19.4373 37.6581 19.1146 37.3721 18.7165 37.3721H17.7386C17.3405 37.3721 17.0178 37.6581 17.0178 38.0107C17.0178 38.3634 17.3405 38.6493 17.7386 38.6493Z" fill="#E82327"/>
<path d="M21.6494 38.6493H22.6274C23.0254 38.6493 23.3481 38.3634 23.3481 38.0107C23.3481 37.6581 23.0254 37.3721 22.6274 37.3721H21.6494C21.2514 37.3721 20.9287 37.6581 20.9287 38.0107C20.9287 38.3634 21.2514 38.6493 21.6494 38.6493Z" fill="#E82327"/>
<path d="M25.5604 38.6493H26.5383C26.9363 38.6493 27.2589 38.3634 27.2589 38.0107C27.2589 37.6581 26.9363 37.3721 26.5383 37.3721H25.5604C25.1623 37.3721 24.8396 37.6581 24.8396 38.0107C24.8396 38.3634 25.1623 38.6493 25.5604 38.6493Z" fill="#E82327"/>
<path d="M29.4733 38.6493H30.4514C30.8493 38.6493 31.172 38.3634 31.172 38.0107C31.172 37.6581 30.8493 37.3721 30.4514 37.3721H29.4733C29.0754 37.3721 28.7527 37.6581 28.7527 38.0107C28.7527 38.3634 29.0754 38.6493 29.4733 38.6493Z" fill="#E82327"/>
<path d="M33.295 38.6493H34.2729C34.671 38.6493 34.9937 38.3634 34.9937 38.0107C34.9937 37.6581 34.671 37.3721 34.2729 37.3721H33.295C32.8969 37.3721 32.5742 37.6581 32.5742 38.0107C32.5742 38.3634 32.8969 38.6493 33.295 38.6493Z" fill="#E82327"/>
<path d="M10.8923 39.6589H9.91435C9.51629 39.6589 9.1936 39.9448 9.1936 40.2975C9.1936 40.6501 9.51629 40.936 9.91435 40.936H10.8923C11.2903 40.936 11.6129 40.6501 11.6129 40.2975C11.6129 39.9448 11.2903 39.6589 10.8923 39.6589Z" fill="#E82327"/>
<path d="M13.8252 40.936H14.8032C15.2012 40.936 15.5239 40.6501 15.5239 40.2975C15.5239 39.9448 15.2012 39.6589 14.8032 39.6589H13.8252C13.4272 39.6589 13.1045 39.9448 13.1045 40.2975C13.1045 40.6501 13.4272 40.936 13.8252 40.936Z" fill="#E82327"/>
<path d="M17.7386 40.936H18.7165C19.1146 40.936 19.4373 40.6501 19.4373 40.2975C19.4373 39.9448 19.1146 39.6589 18.7165 39.6589H17.7386C17.3405 39.6589 17.0178 39.9448 17.0178 40.2975C17.0178 40.6501 17.3405 40.936 17.7386 40.936Z" fill="#E82327"/>
<path d="M21.6494 40.936H22.6274C23.0254 40.936 23.3481 40.6501 23.3481 40.2975C23.3481 39.9448 23.0254 39.6589 22.6274 39.6589H21.6494C21.2514 39.6589 20.9287 39.9448 20.9287 40.2975C20.9287 40.6501 21.2514 40.936 21.6494 40.936Z" fill="#E82327"/>
<path d="M25.5604 40.936H26.5383C26.9363 40.936 27.2589 40.6501 27.2589 40.2975C27.2589 39.9448 26.9363 39.6589 26.5383 39.6589H25.5604C25.1623 39.6589 24.8396 39.9448 24.8396 40.2975C24.8396 40.6501 25.1623 40.936 25.5604 40.936Z" fill="#E82327"/>
<path d="M29.4733 40.936H30.4514C30.8493 40.936 31.172 40.6501 31.172 40.2975C31.172 39.9448 30.8493 39.6589 30.4514 39.6589H29.4733C29.0754 39.6589 28.7527 39.9448 28.7527 40.2975C28.7527 40.6501 29.0754 40.936 29.4733 40.936Z" fill="#E82327"/>
<path d="M33.295 40.936H34.2729C34.671 40.936 34.9937 40.6501 34.9937 40.2975C34.9937 39.9448 34.671 39.6589 34.2729 39.6589H33.295C32.8969 39.6589 32.5742 39.9448 32.5742 40.2975C32.5742 40.6501 32.8969 40.936 33.295 40.936Z" fill="#E82327"/>
</g>
<defs>
<clipPath id="clip0_1_1095">
<rect width="44" height="43.9626" fill="white"/>
</clipPath>
</defs>
</svg>
