<svg width="18" height="18" viewBox="0 0 18 18" fill="none" xmlns="http://www.w3.org/2000/svg">
<path opacity="0.2" d="M15.75 3.9375L9 10.125L2.25 3.9375H15.75Z" fill="#6C727F"/>
<path fill-rule="evenodd" clip-rule="evenodd" d="M1.83535 3.55741C2.04527 3.3284 2.40109 3.31293 2.6301 3.52285L9 9.36193L15.3699 3.52285C15.5989 3.31293 15.9547 3.3284 16.1647 3.55741C16.3746 3.78641 16.3591 4.14223 16.1301 4.35215L9.3801 10.5397C9.16504 10.7368 8.83496 10.7368 8.61991 10.5397L1.86991 4.35215C1.6409 4.14223 1.62543 3.78641 1.83535 3.55741Z" fill="#6C727F"/>
<path fill-rule="evenodd" clip-rule="evenodd" d="M1.6875 3.9375C1.6875 3.62684 1.93934 3.375 2.25 3.375H15.75C16.0607 3.375 16.3125 3.62684 16.3125 3.9375V13.5C16.3125 13.7984 16.194 14.0845 15.983 14.2955C15.772 14.5065 15.4859 14.625 15.1875 14.625H2.8125C2.51413 14.625 2.22798 14.5065 2.017 14.2955C1.80603 14.0845 1.6875 13.7984 1.6875 13.5V3.9375ZM2.8125 4.5V13.5H15.1875V4.5H2.8125Z" fill="#6C727F"/>
<path fill-rule="evenodd" clip-rule="evenodd" d="M8.18409 8.61981C8.39407 8.84876 8.37868 9.20459 8.14973 9.41456L2.80598 14.3153C2.57702 14.5253 2.2212 14.5099 2.01123 14.281C1.80125 14.052 1.81664 13.6962 2.04559 13.4862L7.38934 8.58544C7.61829 8.37547 7.97412 8.39085 8.18409 8.61981Z" fill="#6C727F"/>
<path fill-rule="evenodd" clip-rule="evenodd" d="M9.81591 8.61981C10.0259 8.39085 10.3817 8.37547 10.6107 8.58544L15.9544 13.4862C16.1834 13.6962 16.1988 14.052 15.9888 14.281C15.7788 14.5099 15.423 14.5253 15.194 14.3153L9.85028 9.41456C9.62132 9.20459 9.60594 8.84876 9.81591 8.61981Z" fill="#6C727F"/>
</svg>
