<svg width="18" height="18" viewBox="0 0 18 18" fill="none" xmlns="http://www.w3.org/2000/svg">
<path opacity="0.2" d="M9 3.9375C3.375 3.9375 1.125 9 1.125 9C1.125 9 3.375 14.0625 9 14.0625C14.625 14.0625 16.875 9 16.875 9C16.875 9 14.625 3.9375 9 3.9375ZM9 11.8125C8.44374 11.8125 7.89997 11.6476 7.43746 11.3385C6.97495 11.0295 6.61446 10.5902 6.40159 10.0763C6.18872 9.56238 6.13302 8.99688 6.24154 8.45131C6.35006 7.90574 6.61793 7.4046 7.01126 7.01126C7.4046 6.61793 7.90574 6.35006 8.45131 6.24154C8.99688 6.13302 9.56238 6.18872 10.0763 6.40159C10.5902 6.61446 11.0295 6.97495 11.3385 7.43746C11.6476 7.89997 11.8125 8.44374 11.8125 9C11.8125 9.74592 11.5162 10.4613 10.9887 10.9887C10.4613 11.5162 9.74592 11.8125 9 11.8125Z" fill="#6C727F"/>
<path fill-rule="evenodd" clip-rule="evenodd" d="M2.55538 6.071C3.89628 4.7301 6.00042 3.375 9 3.375C11.9996 3.375 14.1037 4.7301 15.4446 6.071C16.1134 6.73983 16.5957 7.40768 16.9116 7.90928C17.0697 8.16051 17.187 8.37132 17.2656 8.52147C17.305 8.59658 17.3347 8.65664 17.3552 8.69912C17.3654 8.72037 17.3733 8.73724 17.3789 8.74941L17.3857 8.76411L17.3878 8.76875L17.3885 8.77038L17.3888 8.77102C17.3889 8.77129 17.389 8.77155 16.875 9C17.389 9.22845 17.3889 9.22871 17.3888 9.22898L17.3885 9.22962L17.3878 9.23125L17.3857 9.23589L17.3789 9.25059C17.3733 9.26276 17.3654 9.27963 17.3552 9.30088C17.3347 9.34336 17.305 9.40342 17.2656 9.47853C17.187 9.62868 17.0697 9.83949 16.9116 10.0907C16.5957 10.5923 16.1134 11.2602 15.4446 11.929C14.1037 13.2699 11.9996 14.625 9 14.625C6.00042 14.625 3.89628 13.2699 2.55538 11.929C1.88655 11.2602 1.40427 10.5923 1.08845 10.0907C0.930262 9.83949 0.813036 9.62868 0.734386 9.47853C0.69504 9.40342 0.665285 9.34336 0.644828 9.30088C0.634598 9.27963 0.626687 9.26276 0.62106 9.25059L0.614324 9.23589L0.61223 9.23125L0.6115 9.22962L0.611214 9.22898C0.611093 9.22871 0.610981 9.22845 1.125 9C0.610981 8.77155 0.611093 8.77129 0.611214 8.77102L0.6115 8.77038L0.61223 8.76875L0.614324 8.76411L0.62106 8.74941C0.626687 8.73724 0.634598 8.72037 0.644828 8.69912C0.665285 8.65664 0.69504 8.59658 0.734386 8.52147C0.813036 8.37132 0.930262 8.16051 1.08845 7.90928C1.40427 7.40768 1.88655 6.73983 2.55538 6.071ZM1.125 9L0.610981 8.77155C0.54634 8.91699 0.54634 9.08301 0.610981 9.22845L1.125 9ZM1.75394 9C1.82011 9.12396 1.91515 9.29228 2.04046 9.49131C2.3223 9.93893 2.75407 10.5367 3.35087 11.1335C4.54122 12.3239 6.37458 13.5 9 13.5C11.6254 13.5 13.4588 12.3239 14.6491 11.1335C15.2459 10.5367 15.6777 9.93893 15.9595 9.49131C16.0849 9.29228 16.1799 9.12396 16.2461 9C16.1799 8.87604 16.0849 8.70772 15.9595 8.50869C15.6777 8.06107 15.2459 7.4633 14.6491 6.8665C13.4588 5.67615 11.6254 4.5 9 4.5C6.37458 4.5 4.54122 5.67615 3.35087 6.8665C2.75407 7.4633 2.3223 8.06107 2.04046 8.50869C1.91515 8.70772 1.82011 8.87604 1.75394 9ZM16.875 9L17.389 9.22845C17.4537 9.08301 17.4537 8.91699 17.389 8.77155L16.875 9Z" fill="#6C727F"/>
<path fill-rule="evenodd" clip-rule="evenodd" d="M9 6.75C7.75736 6.75 6.75 7.75736 6.75 9C6.75 10.2426 7.75736 11.25 9 11.25C10.2426 11.25 11.25 10.2426 11.25 9C11.25 7.75736 10.2426 6.75 9 6.75ZM5.625 9C5.625 7.13604 7.13604 5.625 9 5.625C10.864 5.625 12.375 7.13604 12.375 9C12.375 10.864 10.864 12.375 9 12.375C7.13604 12.375 5.625 10.864 5.625 9Z" fill="#6C727F"/>
</svg>
