<svg width="22" height="22" viewBox="0 0 22 22" fill="none" xmlns="http://www.w3.org/2000/svg">
<g clip-path="url(#clip0_5455_6882)">
<path d="M21.6566 0.135045C21.9267 0.331473 22.0372 0.593378 21.9881 0.920759L18.8453 19.7779C18.8043 20.0153 18.6734 20.1994 18.4524 20.3304C18.3378 20.3958 18.211 20.4286 18.0718 20.4286C17.9818 20.4286 17.8836 20.4081 17.7772 20.3672L12.2158 18.096L9.24481 21.7176C9.09749 21.9059 8.89696 22 8.64324 22C8.53685 22 8.44682 21.9836 8.37315 21.9509C8.21765 21.8936 8.09283 21.7974 7.99871 21.6624C7.90459 21.5273 7.85753 21.378 7.85753 21.2143V16.9297L18.4647 3.92857L5.34079 15.2846L0.491459 13.2958C0.188632 13.1812 0.0249411 12.9561 0.000387525 12.6205C-0.0159815 12.2932 0.114971 12.0517 0.393245 11.8962L20.8218 0.110491C20.9446 0.0368304 21.0755 0 21.2147 0C21.3784 0 21.5257 0.0450149 21.6566 0.135045Z" fill="#0084FF"/>
</g>
<defs>
<clipPath id="clip0_5455_6882">
<rect width="22" height="22" fill="white"/>
</clipPath>
</defs>
</svg>
