<svg width="324" height="74" viewBox="0 0 324 74" fill="none" xmlns="http://www.w3.org/2000/svg">
<path d="M50.19 49.585C50.19 51.3417 49.8783 52.645 49.255 53.495C48.6317 54.345 47.64 55.1667 46.28 55.96C45.4867 56.4133 44.495 56.8667 43.305 57.32C42.115 57.7167 40.8117 58.0567 39.395 58.34C37.9783 58.68 36.4767 58.935 34.89 59.105C33.36 59.275 31.83 59.36 30.3 59.36C26.22 59.36 22.395 58.8217 18.825 57.745C15.255 56.6117 12.1383 54.94 9.475 52.73C6.86833 50.4633 4.8 47.6583 3.27 44.315C1.74 40.9717 0.975 37.09 0.975 32.67C0.975 28.0233 1.79667 23.9717 3.44 20.515C5.14 17.0583 7.35 14.1967 10.07 11.93C12.8467 9.60666 15.9917 7.87833 19.505 6.745C23.075 5.61166 26.73 5.045 30.47 5.045C35.8533 5.045 40.1033 5.92333 43.22 7.68C46.3933 9.38 47.98 11.6183 47.98 14.395C47.98 15.8683 47.6117 17.1433 46.875 18.22C46.1383 19.2967 45.2883 20.1467 44.325 20.77C42.9083 19.92 41.1233 19.0983 38.97 18.305C36.8733 17.455 34.4933 17.03 31.83 17.03C27.07 17.03 23.2733 18.39 20.44 21.11C17.6633 23.83 16.275 27.5983 16.275 32.415C16.275 35.0217 16.6433 37.2883 17.38 39.215C18.1733 41.085 19.2217 42.6433 20.525 43.89C21.8283 45.08 23.33 45.9867 25.03 46.61C26.73 47.1767 28.5433 47.46 30.47 47.46C31.7167 47.46 32.8217 47.3467 33.785 47.12C34.7483 46.8933 35.485 46.6383 35.995 46.355V38.365H26.9C26.56 37.7417 26.22 36.92 25.88 35.9C25.5967 34.88 25.455 33.8033 25.455 32.67C25.455 30.63 25.9083 29.1567 26.815 28.25C27.7783 27.3433 28.9967 26.89 30.47 26.89H44.835C46.535 26.89 47.8383 27.3717 48.745 28.335C49.7083 29.2417 50.19 30.545 50.19 32.245V49.585ZM80.7103 59.36C77.367 59.36 74.2503 58.9067 71.3603 58C68.527 57.0367 66.0336 55.62 63.8803 53.75C61.7836 51.88 60.112 49.5283 58.8653 46.695C57.6753 43.8617 57.0803 40.5467 57.0803 36.75C57.0803 33.01 57.6753 29.8083 58.8653 27.145C60.112 24.425 61.727 22.215 63.7103 20.515C65.6936 18.7583 67.9603 17.4833 70.5103 16.69C73.0603 15.84 75.667 15.415 78.3303 15.415C81.3336 15.415 84.0536 15.8683 86.4903 16.775C88.9836 17.6817 91.1086 18.9283 92.8653 20.515C94.6786 22.1017 96.067 24 97.0303 26.21C98.0503 28.42 98.5603 30.8283 98.5603 33.435C98.5603 35.3617 98.022 36.835 96.9453 37.855C95.8686 38.875 94.367 39.5267 92.4403 39.81L71.4453 42.955C72.0686 44.825 73.3436 46.2417 75.2703 47.205C77.197 48.1117 79.407 48.565 81.9003 48.565C84.2236 48.565 86.4053 48.2817 88.4453 47.715C90.542 47.0917 92.242 46.3833 93.5453 45.59C94.452 46.1567 95.217 46.95 95.8403 47.97C96.4636 48.99 96.7753 50.0667 96.7753 51.2C96.7753 53.75 95.5853 55.6483 93.2053 56.895C91.392 57.8583 89.352 58.51 87.0853 58.85C84.8186 59.19 82.6936 59.36 80.7103 59.36ZM78.3303 25.955C76.9703 25.955 75.7803 26.1817 74.7603 26.635C73.797 27.0883 73.0036 27.6833 72.3803 28.42C71.757 29.1 71.2753 29.8933 70.9353 30.8C70.652 31.65 70.482 32.5283 70.4253 33.435L84.9603 31.055C84.7903 29.9217 84.167 28.7883 83.0903 27.655C82.0136 26.5217 80.427 25.955 78.3303 25.955ZM127.361 59.36C124.017 59.36 120.901 58.9067 118.011 58C115.177 57.0367 112.684 55.62 110.531 53.75C108.434 51.88 106.762 49.5283 105.516 46.695C104.326 43.8617 103.731 40.5467 103.731 36.75C103.731 33.01 104.326 29.8083 105.516 27.145C106.762 24.425 108.377 22.215 110.361 20.515C112.344 18.7583 114.611 17.4833 117.161 16.69C119.711 15.84 122.317 15.415 124.981 15.415C127.984 15.415 130.704 15.8683 133.141 16.775C135.634 17.6817 137.759 18.9283 139.516 20.515C141.329 22.1017 142.717 24 143.681 26.21C144.701 28.42 145.211 30.8283 145.211 33.435C145.211 35.3617 144.672 36.835 143.596 37.855C142.519 38.875 141.017 39.5267 139.091 39.81L118.096 42.955C118.719 44.825 119.994 46.2417 121.921 47.205C123.847 48.1117 126.057 48.565 128.551 48.565C130.874 48.565 133.056 48.2817 135.096 47.715C137.192 47.0917 138.892 46.3833 140.196 45.59C141.102 46.1567 141.867 46.95 142.491 47.97C143.114 48.99 143.426 50.0667 143.426 51.2C143.426 53.75 142.236 55.6483 139.856 56.895C138.042 57.8583 136.002 58.51 133.736 58.85C131.469 59.19 129.344 59.36 127.361 59.36ZM124.981 25.955C123.621 25.955 122.431 26.1817 121.411 26.635C120.447 27.0883 119.654 27.6833 119.031 28.42C118.407 29.1 117.926 29.8933 117.586 30.8C117.302 31.65 117.132 32.5283 117.076 33.435L131.611 31.055C131.441 29.9217 130.817 28.7883 129.741 27.655C128.664 26.5217 127.077 25.955 124.981 25.955ZM192.541 50.52C192.258 53.1833 191.464 55.2233 190.161 56.64C188.914 58.0567 187.073 58.765 184.636 58.765C182.823 58.765 181.208 58.34 179.791 57.49C178.374 56.5833 176.844 55.0817 175.201 52.985L166.786 42.445V57.915C166.163 58.0283 165.228 58.17 163.981 58.34C162.791 58.5667 161.573 58.68 160.326 58.68C159.079 58.68 157.946 58.595 156.926 58.425C155.963 58.255 155.141 57.915 154.461 57.405C153.781 56.895 153.243 56.215 152.846 55.365C152.506 54.4583 152.336 53.2967 152.336 51.88V2.665C152.959 2.495 153.866 2.325 155.056 2.155C156.303 1.92833 157.549 1.815 158.796 1.815C160.043 1.815 161.148 1.9 162.111 2.07C163.131 2.24 163.981 2.58 164.661 3.09C165.341 3.6 165.851 4.30833 166.191 5.215C166.588 6.065 166.786 7.19833 166.786 8.615V31.055L181.406 16.095C184.353 16.095 186.704 16.7467 188.461 18.05C190.274 19.3533 191.181 20.9967 191.181 22.98C191.181 23.83 191.039 24.6233 190.756 25.36C190.473 26.04 190.019 26.7483 189.396 27.485C188.829 28.2217 188.064 29.015 187.101 29.865C186.194 30.6583 185.118 31.5933 183.871 32.67L178.941 36.92L192.541 50.52ZM240.16 37.345C240.16 40.8583 239.622 44.0033 238.545 46.78C237.469 49.5 235.939 51.795 233.955 53.665C232.029 55.535 229.705 56.9517 226.985 57.915C224.265 58.8783 221.234 59.36 217.89 59.36C214.547 59.36 211.515 58.85 208.795 57.83C206.075 56.81 203.724 55.365 201.74 53.495C199.814 51.5683 198.312 49.245 197.235 46.525C196.159 43.805 195.62 40.745 195.62 37.345C195.62 34.0017 196.159 30.97 197.235 28.25C198.312 25.53 199.814 23.235 201.74 21.365C203.724 19.4383 206.075 17.965 208.795 16.945C211.515 15.925 214.547 15.415 217.89 15.415C221.234 15.415 224.265 15.9533 226.985 17.03C229.705 18.05 232.029 19.5233 233.955 21.45C235.939 23.32 237.469 25.615 238.545 28.335C239.622 31.055 240.16 34.0583 240.16 37.345ZM210.41 37.345C210.41 40.8017 211.062 43.465 212.365 45.335C213.725 47.1483 215.595 48.055 217.975 48.055C220.355 48.055 222.169 47.12 223.415 45.25C224.719 43.38 225.37 40.745 225.37 37.345C225.37 33.945 224.719 31.3383 223.415 29.525C222.112 27.655 220.27 26.72 217.89 26.72C215.51 26.72 213.669 27.655 212.365 29.525C211.062 31.3383 210.41 33.945 210.41 37.345ZM247.38 16.69C247.38 13.8 247.862 11.335 248.825 9.295C249.845 7.19833 251.205 5.49833 252.905 4.195C254.605 2.835 256.588 1.84333 258.855 1.22C261.178 0.596664 263.643 0.284998 266.25 0.284998C270.443 0.284998 273.532 0.851664 275.515 1.985C277.498 3.06166 278.49 4.93166 278.49 7.595C278.49 8.72833 278.235 9.74833 277.725 10.655C277.272 11.5617 276.762 12.2417 276.195 12.695C275.118 12.4117 273.985 12.185 272.795 12.015C271.662 11.7883 270.33 11.675 268.8 11.675C266.363 11.675 264.465 12.1 263.105 12.95C261.745 13.7433 261.065 15.16 261.065 17.2V19.92H275.005C275.345 20.5433 275.657 21.3367 275.94 22.3C276.28 23.2067 276.45 24.2267 276.45 25.36C276.45 27.3433 275.997 28.7883 275.09 29.695C274.24 30.545 273.078 30.97 271.605 30.97H261.83V57.915C261.263 58.085 260.357 58.255 259.11 58.425C257.92 58.595 256.673 58.68 255.37 58.68C254.123 58.68 252.99 58.595 251.97 58.425C251.007 58.255 250.185 57.915 249.505 57.405C248.825 56.895 248.287 56.215 247.89 55.365C247.55 54.4583 247.38 53.2967 247.38 51.88V16.69ZM289.363 47.46C288.74 46.0433 288.06 44.4567 287.323 42.7C286.643 40.9433 285.907 38.9317 285.113 36.665C284.377 34.3983 283.583 31.82 282.733 28.93C281.94 25.9833 281.09 22.6117 280.183 18.815C280.977 18.0217 282.025 17.3417 283.328 16.775C284.688 16.1517 286.162 15.84 287.748 15.84C289.732 15.84 291.375 16.265 292.678 17.115C293.982 17.9083 294.945 19.4383 295.568 21.705L302.283 45.08H302.623C303.303 43.1533 303.955 41.0567 304.578 38.79C305.258 36.5233 305.91 34.2 306.533 31.82C307.157 29.3833 307.723 26.975 308.233 24.595C308.8 22.1583 309.282 19.7783 309.678 17.455C311.718 16.3783 313.957 15.84 316.393 15.84C318.377 15.84 320.02 16.265 321.323 17.115C322.627 17.965 323.278 19.4383 323.278 21.535C323.278 23.065 323.08 24.85 322.683 26.89C322.287 28.8733 321.748 30.9983 321.068 33.265C320.445 35.5317 319.68 37.8833 318.773 40.32C317.923 42.7 317.017 45.0517 316.053 47.375C315.09 49.6983 314.098 51.9083 313.078 54.005C312.058 56.045 311.067 57.8867 310.103 59.53C308.517 62.3067 307.043 64.5733 305.683 66.33C304.323 68.0867 303.02 69.4467 301.773 70.41C300.527 71.43 299.28 72.11 298.033 72.45C296.787 72.8467 295.483 73.045 294.123 73.045C291.743 73.045 289.817 72.3367 288.343 70.92C286.87 69.5033 285.992 67.6617 285.708 65.395C287.522 63.9783 289.335 62.3917 291.148 60.635C292.962 58.935 294.605 57.1783 296.078 55.365C295.115 55.0817 294.067 54.43 292.933 53.41C291.857 52.3333 290.667 50.35 289.363 47.46Z" fill="#0084FF"/>
</svg>
