<svg width="30" height="30" viewBox="0 0 30 30" fill="none" xmlns="http://www.w3.org/2000/svg">
<path d="M5.76999 23.75C5.19416 23.75 4.71375 23.5575 4.32875 23.1725C3.94375 22.7875 3.75083 22.3067 3.75 21.73V8.27C3.75 7.69417 3.94292 7.21375 4.32875 6.82875C4.71458 6.44375 5.19458 6.25083 5.76874 6.25H24.2312C24.8062 6.25 25.2862 6.44292 25.6712 6.82875C26.0562 7.21458 26.2491 7.695 26.2499 8.27V21.7313C26.2499 22.3062 26.057 22.7867 25.6712 23.1725C25.2853 23.5583 24.8053 23.7508 24.2312 23.75H5.76999ZM15 15.145L4.99999 8.60625V21.7313C4.99999 21.9554 5.07208 22.1396 5.21624 22.2837C5.36041 22.4279 5.54499 22.5 5.76999 22.5H24.2312C24.4553 22.5 24.6395 22.4279 24.7837 22.2837C24.9278 22.1396 24.9999 21.955 24.9999 21.73V8.605L15 15.145ZM15 13.75L24.6149 7.5H5.38499L15 13.75ZM4.99999 8.60625V7.5V21.7313C4.99999 21.9554 5.07208 22.1396 5.21624 22.2837C5.36041 22.4279 5.54499 22.5 5.76999 22.5H4.99999V8.60625Z" fill="black" fill-opacity="0.6"/>
</svg>
