<svg width="30" height="48" viewBox="0 0 30 48" fill="none" xmlns="http://www.w3.org/2000/svg">
<g clip-path="url(#clip0_1_1090)">
<path d="M24.6204 0H5.18731C3.81184 0.00149465 2.49314 0.529322 1.52052 1.46768C0.547911 2.40604 0.000816778 3.67831 -0.000732422 5.00535V42.9947C0.000816778 44.3217 0.547911 45.5939 1.52052 46.5323C2.49314 47.4707 3.81184 47.9985 5.18731 48H24.6204C25.9959 47.9985 27.3146 47.4707 28.2872 46.5323C29.2598 45.5939 29.8069 44.3217 29.8085 42.9947V5.00535C29.8069 3.67831 29.2598 2.40604 28.2872 1.46768C27.3146 0.529322 25.9959 0.00149465 24.6204 0ZM20.7445 1.79679V2.95803C20.7441 3.19259 20.6474 3.41741 20.4754 3.58322C20.3034 3.74904 20.0703 3.84229 19.8272 3.84257H9.98318C9.74018 3.84229 9.50709 3.74902 9.33527 3.58319C9.16336 3.41736 9.06667 3.19254 9.06639 2.95803V1.79679H20.7445ZM27.9455 42.9947C27.9445 43.8454 27.5939 44.6609 26.9705 45.2624C26.3469 45.8639 25.5016 46.2023 24.6199 46.2032H5.18731C4.30559 46.2023 3.46028 45.8639 2.8368 45.2624C2.21333 44.6609 1.86263 43.8454 1.86164 42.9947V5.00535C1.86263 4.15467 2.21333 3.33912 2.8368 2.73761C3.46028 2.13609 4.30559 1.79775 5.18731 1.79679H7.20188V2.95803C7.20272 3.66891 7.4958 4.35045 8.01682 4.85311C8.53784 5.35578 9.24427 5.63854 9.98109 5.63936H19.8251C20.5619 5.63854 21.2684 5.3558 21.7895 4.85314C22.3106 4.35049 22.6038 3.66896 22.6048 2.95803V1.79679H24.6204C25.5021 1.79787 26.3473 2.13628 26.9706 2.73778C27.594 3.33929 27.9445 4.15476 27.9455 5.00535V42.9947Z" fill="#4250CE"/>
<path d="M20.6302 41.9254H9.17877C8.93178 41.9254 8.69492 42.0201 8.52029 42.1885C8.34566 42.357 8.24756 42.5855 8.24756 42.8238C8.24756 43.0621 8.34566 43.2905 8.52029 43.459C8.69492 43.6275 8.93178 43.7222 9.17877 43.7222H20.6302C20.8772 43.7222 21.114 43.6275 21.2887 43.459C21.4633 43.2905 21.5614 43.0621 21.5614 42.8238C21.5614 42.5855 21.4633 42.357 21.2887 42.1885C21.114 42.0201 20.8772 41.9254 20.6302 41.9254Z" fill="#4250CE"/>
</g>
<defs>
<clipPath id="clip0_1_1090">
<rect width="30" height="48" fill="white"/>
</clipPath>
</defs>
</svg>
