<svg width="30" height="30" viewBox="0 0 30 30" fill="none" xmlns="http://www.w3.org/2000/svg">
<path d="M15 5.625C15 5.45924 14.9341 5.30027 14.8169 5.18306C14.6997 5.06585 14.5407 5 14.375 5C14.2092 5 14.0502 5.06585 13.933 5.18306C13.8158 5.30027 13.75 5.45924 13.75 5.625V7.5375C10.9375 7.85 8.74998 10.225 8.74998 13.125V20.5125L6.76249 22.5H21.9874L19.9999 20.5125V13.125C19.9999 10.225 17.8124 7.85 15 7.5375V5.625ZM14.375 3.75C14.8722 3.75 15.3491 3.94754 15.7008 4.29917C16.0524 4.65081 16.2499 5.12772 16.2499 5.625V6.5125C19.1374 7.325 21.2499 10 21.2499 13.125V20L24.9999 23.75H3.75L7.49998 20V13.125C7.49998 10 9.61248 7.325 12.5 6.5125V5.625C12.5 5.12772 12.6975 4.65081 13.0491 4.29917C13.4008 3.94754 13.8777 3.75 14.375 3.75ZM14.375 27.5C13.6546 27.5001 12.9562 27.2514 12.3981 26.7958C11.8401 26.3402 11.4565 25.7058 11.3125 25H12.6125C12.741 25.3648 12.9796 25.6807 13.2953 25.9041C13.611 26.1276 13.9882 26.2476 14.375 26.2476C14.7617 26.2476 15.139 26.1276 15.4546 25.9041C15.7703 25.6807 16.0089 25.3648 16.1374 25H17.4374C17.2934 25.7058 16.9098 26.3402 16.3518 26.7958C15.7937 27.2514 15.0954 27.5001 14.375 27.5Z" fill="black" fill-opacity="0.6"/>
</svg>
