<svg width="160" height="37" viewBox="0 0 160 37" fill="none" xmlns="http://www.w3.org/2000/svg">
<path d="M24.788 24.926C24.788 25.794 24.634 26.438 24.326 26.858C24.018 27.278 23.528 27.684 22.856 28.076C22.464 28.3 21.974 28.524 21.386 28.748C20.798 28.944 20.154 29.112 19.454 29.252C18.754 29.42 18.012 29.546 17.228 29.63C16.472 29.714 15.716 29.756 14.96 29.756C12.944 29.756 11.054 29.504 9.29 29C7.526 28.468 5.986 27.656 4.67 26.564C3.382 25.472 2.36 24.086 1.604 22.406C0.848 20.698 0.47 18.668 0.47 16.316C0.47 14.104 0.848 12.158 1.604 10.478C2.36 8.798 3.396 7.384 4.712 6.236C6.028 5.088 7.568 4.22 9.332 3.632C11.096 3.044 13 2.75 15.044 2.75C17.704 2.75 19.804 3.17 21.344 4.01C22.912 4.85 23.696 5.956 23.696 7.328C23.696 8.056 23.514 8.686 23.15 9.218C22.786 9.75 22.366 10.17 21.89 10.478C21.19 10.058 20.308 9.652 19.244 9.26C18.18 8.868 16.962 8.672 15.59 8.672C14.47 8.672 13.448 8.854 12.524 9.218C11.6 9.582 10.802 10.1 10.13 10.772C9.458 11.416 8.94 12.214 8.576 13.166C8.212 14.09 8.03 15.126 8.03 16.274C8.03 17.534 8.198 18.64 8.534 19.592C8.898 20.544 9.388 21.342 10.004 21.986C10.648 22.602 11.39 23.078 12.23 23.414C13.098 23.722 14.05 23.876 15.086 23.876C15.702 23.876 16.234 23.82 16.682 23.708C17.158 23.596 17.522 23.47 17.774 23.33V19.298H13.28C13.112 18.99 12.944 18.584 12.776 18.08C12.636 17.576 12.566 17.044 12.566 16.484C12.566 15.476 12.79 14.748 13.238 14.3C13.714 13.852 14.316 13.628 15.044 13.628H22.142C22.982 13.628 23.626 13.866 24.074 14.342C24.55 14.79 24.788 15.434 24.788 16.274V24.926ZM35.2066 21.608C35.5986 22.616 36.2566 23.33 37.1806 23.75C38.1046 24.142 39.1406 24.338 40.2886 24.338C41.4646 24.338 42.5846 24.198 43.6486 23.918C44.7126 23.61 45.5666 23.26 46.2106 22.868C46.6586 23.148 47.0366 23.54 47.3446 24.044C47.6526 24.548 47.8066 25.08 47.8066 25.64C47.8066 26.34 47.6106 26.942 47.2186 27.446C46.8266 27.95 46.2666 28.37 45.5386 28.706C44.8386 29.042 43.9986 29.28 43.0186 29.42C42.0386 29.588 40.9606 29.672 39.7846 29.672C38.1326 29.672 36.5926 29.448 35.1646 29C33.7646 28.524 32.5466 27.824 31.5106 26.9C30.4746 25.976 29.6626 24.814 29.0746 23.414C28.4866 22.014 28.1926 20.376 28.1926 18.5C28.1926 16.652 28.4866 15.07 29.0746 13.754C29.6906 12.41 30.4886 11.318 31.4686 10.478C32.4766 9.61 33.6106 8.98 34.8706 8.588C36.1306 8.168 37.4186 7.958 38.7346 7.958C40.2186 7.958 41.5626 8.182 42.7666 8.63C43.9986 9.078 45.0486 9.694 45.9166 10.478C46.8126 11.262 47.4986 12.2 47.9746 13.292C48.4506 14.384 48.6886 15.574 48.6886 16.862C48.6886 17.814 48.4226 18.542 47.8906 19.046C47.3586 19.55 46.6166 19.872 45.6646 20.012L35.2066 21.608ZM38.7766 13.166C37.7126 13.166 36.8166 13.488 36.0886 14.132C35.3886 14.776 34.9686 15.686 34.8286 16.862L41.9686 15.686C41.9406 15.406 41.8566 15.126 41.7166 14.846C41.5766 14.538 41.3806 14.258 41.1286 14.006C40.8766 13.754 40.5546 13.558 40.1626 13.418C39.7706 13.25 39.3086 13.166 38.7766 13.166ZM58.2574 21.608C58.6494 22.616 59.3074 23.33 60.2314 23.75C61.1554 24.142 62.1914 24.338 63.3394 24.338C64.5154 24.338 65.6354 24.198 66.6994 23.918C67.7634 23.61 68.6174 23.26 69.2614 22.868C69.7094 23.148 70.0874 23.54 70.3954 24.044C70.7034 24.548 70.8574 25.08 70.8574 25.64C70.8574 26.34 70.6614 26.942 70.2694 27.446C69.8774 27.95 69.3174 28.37 68.5894 28.706C67.8894 29.042 67.0494 29.28 66.0694 29.42C65.0894 29.588 64.0114 29.672 62.8354 29.672C61.1834 29.672 59.6434 29.448 58.2154 29C56.8154 28.524 55.5974 27.824 54.5614 26.9C53.5254 25.976 52.7134 24.814 52.1254 23.414C51.5374 22.014 51.2434 20.376 51.2434 18.5C51.2434 16.652 51.5374 15.07 52.1254 13.754C52.7414 12.41 53.5394 11.318 54.5194 10.478C55.5274 9.61 56.6614 8.98 57.9214 8.588C59.1814 8.168 60.4694 7.958 61.7854 7.958C63.2694 7.958 64.6134 8.182 65.8174 8.63C67.0494 9.078 68.0994 9.694 68.9674 10.478C69.8634 11.262 70.5494 12.2 71.0254 13.292C71.5014 14.384 71.7394 15.574 71.7394 16.862C71.7394 17.814 71.4734 18.542 70.9414 19.046C70.4094 19.55 69.6674 19.872 68.7154 20.012L58.2574 21.608ZM61.8274 13.166C60.7634 13.166 59.8674 13.488 59.1394 14.132C58.4394 14.776 58.0194 15.686 57.8794 16.862L65.0194 15.686C64.9914 15.406 64.9074 15.126 64.7674 14.846C64.6274 14.538 64.4314 14.258 64.1794 14.006C63.9274 13.754 63.6054 13.558 63.2134 13.418C62.8214 13.25 62.3594 13.166 61.8274 13.166ZM82.4002 28.958C82.0922 29.042 81.6442 29.126 81.0562 29.21C80.4962 29.294 79.8802 29.336 79.2082 29.336C77.8082 29.336 76.8002 29.112 76.1842 28.664C75.5682 28.188 75.2602 27.292 75.2602 25.976V1.616C75.5682 1.532 76.0022 1.448 76.5622 1.364C77.1502 1.28 77.7802 1.238 78.4522 1.238C79.8522 1.238 80.8602 1.476 81.4762 1.952C82.0922 2.4 82.4002 3.282 82.4002 4.598V15.686L89.6242 8.294C91.0802 8.294 92.2422 8.616 93.1102 9.26C94.0062 9.904 94.4542 10.716 94.4542 11.696C94.4542 12.116 94.3842 12.508 94.2442 12.872C94.1042 13.208 93.8802 13.558 93.5722 13.922C93.2922 14.286 92.9142 14.678 92.4382 15.098C91.9902 15.49 91.4582 15.952 90.8422 16.484L88.3642 18.626L95.1262 25.304C94.9862 26.62 94.5942 27.628 93.9502 28.328C93.3342 29.028 92.4242 29.378 91.2202 29.378C90.3242 29.378 89.5262 29.168 88.8262 28.748C88.1262 28.3 87.3702 27.558 86.5582 26.522L82.4002 21.356V28.958ZM118.656 18.794C118.656 20.474 118.39 21.986 117.858 23.33C117.354 24.674 116.612 25.822 115.632 26.774C114.68 27.698 113.532 28.412 112.188 28.916C110.844 29.42 109.332 29.672 107.652 29.672C105.972 29.672 104.46 29.434 103.116 28.958C101.772 28.454 100.61 27.74 99.6297 26.816C98.6777 25.864 97.9357 24.716 97.4037 23.372C96.8997 22.028 96.6477 20.502 96.6477 18.794C96.6477 17.142 96.9137 15.644 97.4457 14.3C97.9777 12.956 98.7197 11.822 99.6717 10.898C100.652 9.946 101.814 9.218 103.158 8.714C104.502 8.21 106 7.958 107.652 7.958C109.304 7.958 110.802 8.224 112.146 8.756C113.49 9.26 114.638 9.988 115.59 10.94C116.57 11.864 117.326 12.998 117.858 14.342C118.39 15.686 118.656 17.17 118.656 18.794ZM107.652 13.544C106.476 13.544 105.566 14.006 104.922 14.93C104.278 15.826 103.956 17.114 103.956 18.794C103.956 20.558 104.278 21.888 104.922 22.784C105.566 23.652 106.476 24.086 107.652 24.086C108.828 24.086 109.738 23.638 110.382 22.742C111.026 21.846 111.348 20.53 111.348 18.794C111.348 17.114 111.026 15.826 110.382 14.93C109.738 14.006 108.828 13.544 107.652 13.544ZM128.985 10.184H135.873C136.041 10.492 136.195 10.884 136.335 11.36C136.503 11.808 136.587 12.312 136.587 12.872C136.587 13.852 136.363 14.566 135.915 15.014C135.495 15.434 134.921 15.644 134.193 15.644H129.363V28.958C129.055 29.042 128.607 29.126 128.019 29.21C127.459 29.294 126.843 29.336 126.171 29.336C124.771 29.336 123.763 29.112 123.147 28.664C122.531 28.188 122.223 27.292 122.223 25.976V8.588C122.223 7.16 122.461 5.942 122.937 4.934C123.441 3.898 124.113 3.058 124.953 2.414C125.793 1.742 126.773 1.252 127.893 0.943998C129.041 0.635999 130.259 0.481999 131.547 0.481999C133.619 0.481999 135.145 0.761999 136.125 1.322C137.105 1.854 137.595 2.778 137.595 4.094C137.595 4.654 137.469 5.158 137.217 5.606C136.993 6.054 136.741 6.39 136.461 6.614C135.929 6.474 135.369 6.362 134.781 6.278C134.221 6.166 133.563 6.11 132.807 6.11C131.603 6.11 130.665 6.32 129.993 6.74C129.321 7.132 128.985 7.832 128.985 8.84V10.184ZM142.968 23.792C142.66 23.092 142.324 22.308 141.96 21.44C141.624 20.572 141.26 19.578 140.868 18.458C140.504 17.338 140.112 16.064 139.692 14.636C139.3 13.18 138.88 11.514 138.432 9.638C138.824 9.246 139.342 8.91 139.986 8.63C140.658 8.322 141.386 8.168 142.17 8.168C143.15 8.168 143.962 8.378 144.606 8.798C145.25 9.19 145.726 9.946 146.034 11.066C146.594 13.026 147.14 14.972 147.672 16.904C148.232 18.808 148.792 20.712 149.352 22.616H149.52C149.856 21.664 150.178 20.628 150.486 19.508C150.822 18.388 151.144 17.24 151.452 16.064C151.76 14.86 152.04 13.67 152.292 12.494C152.572 11.29 152.81 10.114 153.006 8.966C153.482 8.714 153.972 8.518 154.476 8.378C154.98 8.238 155.512 8.168 156.072 8.168C157.052 8.168 157.906 8.378 158.634 8.798C159.362 9.218 159.726 9.946 159.726 10.982C159.726 12.102 159.544 13.446 159.18 15.014C158.844 16.554 158.396 18.164 157.836 19.844C157.276 21.496 156.646 23.12 155.946 24.716C155.246 26.312 154.546 27.712 153.846 28.916C152.25 31.66 150.78 33.676 149.436 34.964C148.12 36.28 146.776 36.938 145.404 36.938C144.284 36.938 143.346 36.588 142.59 35.888C141.834 35.188 141.386 34.278 141.246 33.158C142.142 32.402 143.038 31.548 143.934 30.596C144.83 29.644 145.614 28.678 146.286 27.698C145.81 27.558 145.292 27.236 144.732 26.732C144.2 26.2 143.612 25.22 142.968 23.792Z" fill="black" fill-opacity="0.6"/>
</svg>
