<svg width="44" height="44" viewBox="0 0 44 44" fill="none" xmlns="http://www.w3.org/2000/svg">
<g clip-path="url(#clip0_1_1082)">
<path d="M41.9018 13.4538H18.5591L17.6146 11.8136L32.3586 4.83676C33.127 4.47286 33.5248 3.36419 33.245 2.36502L32.9374 1.26781C32.6577 0.269305 31.8052 -0.247077 31.0373 0.116385L24.5204 3.20013C24.1906 3.35626 24.0206 3.83033 24.1406 4.25923C24.2606 4.68792 24.6249 4.90926 24.9552 4.75314L31.4722 1.66928C31.5816 1.61717 31.7034 1.69109 31.7432 1.83355L32.0506 2.93065C32.0907 3.07332 32.0336 3.23187 31.9237 3.28387L16.8187 10.4316L15.9914 8.99514L22.1378 6.08613C22.4676 5.93001 22.6376 5.45583 22.5175 5.02703C22.3974 4.59824 22.0327 4.3769 21.7029 4.53324L15.1956 7.61313L14.1805 5.85036C13.9019 5.36669 13.4581 5.07793 12.9935 5.07793H1.48287C0.665261 5.07793 0 5.9429 0 7.00597V34.4902C0 35.5532 0.665261 36.4182 1.48287 36.4182H10.0949L9.25054 42.1977C9.11655 43.115 9.65763 43.9626 10.3744 43.9626H33.0103C33.7284 43.9626 34.2679 43.1131 34.1342 42.1977L33.2898 36.4182H41.9018C42.7194 36.4182 43.3847 35.5532 43.3847 34.4902V31.3943C43.3847 30.9379 43.1003 30.568 42.7492 30.568C42.3981 30.568 42.1137 30.9379 42.1137 31.3943V34.4902C42.1137 34.642 42.0187 34.7655 41.9018 34.7655H36.877L35.6031 31.7175C35.3435 31.0961 34.8442 30.7099 34.3003 30.7099H9.08444C8.54052 30.7099 8.04126 31.0961 7.78154 31.7175L6.50771 34.7655H1.48287C1.36611 34.7655 1.27104 34.642 1.27104 34.4902V20.7625H28.8916V22.3364C28.8916 23.3994 29.5568 24.2644 30.3745 24.2644H41.9018C41.974 24.2644 42.0443 24.2554 42.1137 24.2424V27.5382C42.1137 27.9946 42.3981 28.3645 42.7492 28.3645C43.1003 28.3645 43.3847 27.9946 43.3847 27.5382V15.3817C43.3847 14.3186 42.7194 13.4538 41.9018 13.4538ZM10.5279 42.31L11.9811 32.3626H31.4035L32.8569 42.31H10.5279ZM34.4864 32.5066L35.4305 34.7655H33.0484L32.6973 32.3626H34.3004C34.378 32.3627 34.4492 32.4178 34.4864 32.5066ZM8.89836 32.5066C8.93547 32.4178 9.00682 32.3626 9.08452 32.3626H10.6875L10.3364 34.7655H7.95423L8.89836 32.5066ZM1.48287 6.73053H12.9934C13.0597 6.73053 13.1231 6.77184 13.163 6.84082L16.9713 13.4538H1.27104V7.00597C1.27104 6.85403 1.36611 6.73053 1.48287 6.73053ZM1.27104 19.1099V15.1063H28.9085C28.8986 15.1967 28.8916 15.2881 28.8916 15.382V19.1099H1.27104ZM41.9018 22.6117H30.3745C30.2576 22.6117 30.1626 22.4882 30.1626 22.3364V15.3819C30.1626 15.2301 30.2576 15.1065 30.3745 15.1065L30.3781 15.1062H41.9018C42.0187 15.1062 42.1137 15.2298 42.1137 15.3817V22.3364C42.1137 22.4883 42.0187 22.6117 41.9018 22.6117Z" fill="#158ADF"/>
<path d="M33.5336 16.264C32.4329 16.264 31.5374 17.4284 31.5374 18.8594C31.5374 20.2905 32.4328 21.4549 33.5336 21.4549C34.6343 21.4549 35.5297 20.2905 35.5297 18.8594C35.5297 17.4282 34.6343 16.264 33.5336 16.264ZM33.5336 19.8022C33.1337 19.8022 32.8084 19.3792 32.8084 18.8592C32.8084 18.3394 33.1337 17.9166 33.5336 17.9166C33.9333 17.9166 34.2587 18.3394 34.2587 18.8592C34.2587 19.3792 33.9333 19.8022 33.5336 19.8022Z" fill="#158ADF"/>
<path d="M38.7433 16.264C37.6427 16.264 36.7471 17.4284 36.7471 18.8594C36.7471 20.2905 37.6426 21.4549 38.7433 21.4549C39.844 21.4549 40.7395 20.2905 40.7395 18.8594C40.7394 17.4282 39.8439 16.264 38.7433 16.264ZM38.7433 19.8022C38.3434 19.8022 38.0181 19.3792 38.0181 18.8592C38.0181 18.3394 38.3434 17.9166 38.7433 17.9166C39.1431 17.9166 39.4685 18.3394 39.4685 18.8592C39.4684 19.3792 39.1431 19.8022 38.7433 19.8022Z" fill="#158ADF"/>
<path d="M28.067 38.2354H15.3201C14.9691 38.2354 14.6846 38.6053 14.6846 39.0616C14.6846 39.5179 14.9691 39.8879 15.3201 39.8879H28.067C28.4181 39.8879 28.7025 39.5179 28.7025 39.0616C28.7025 38.6053 28.418 38.2354 28.067 38.2354Z" fill="#158ADF"/>
<path d="M16.3887 35.9893H26.9976C27.3486 35.9893 27.6331 35.6192 27.6331 35.163C27.6331 34.7066 27.3486 34.3367 26.9976 34.3367H16.3887C16.0378 34.3367 15.7532 34.7066 15.7532 35.163C15.7532 35.6192 16.0378 35.9893 16.3887 35.9893Z" fill="#158ADF"/>
</g>
<defs>
<clipPath id="clip0_1_1082">
<rect width="44" height="43.9626" fill="white"/>
</clipPath>
</defs>
</svg>
