<svg width="44" height="44" viewBox="0 0 44 44" fill="none" xmlns="http://www.w3.org/2000/svg">
<g clip-path="url(#clip0_1_1117)">
<path d="M33.7306 2.19671V19.7832C32.9107 19.7832 32.2672 20.4466 32.2668 21.2457L32.264 27.8444H2.93501C1.29427 27.8444 0.000244141 29.1657 0.000244141 30.7767V38.0995C0.000244141 39.7105 1.29973 41.0318 2.93501 41.0318H3.66548V43.2271C3.66393 43.6339 3.99444 43.9641 4.40169 43.9626H9.53364C9.93863 43.961 10.2684 43.6317 10.2669 43.2271V41.0318H33.7307V43.2271C33.7291 43.6345 34.0606 43.965 34.4683 43.9626H39.5988C40.0066 43.965 40.338 43.6345 40.3364 43.2271V41.0318H41.0669C42.7077 41.0318 44.0002 39.7105 44.0002 38.0995V30.7767C44.0002 29.1657 42.708 27.8444 41.0669 27.8444H39.5988V21.2457C39.5988 20.4466 38.9506 19.7832 38.1336 19.7832L38.1321 2.19671C38.132 0.991625 37.1583 1.52588e-05 35.935 1.52588e-05C34.7117 1.52588e-05 33.7306 0.991625 33.7306 2.19671ZM35.935 1.46687C36.3339 1.46687 36.6654 1.77813 36.6654 2.19671L36.6668 19.7832H35.2001L35.1987 2.19671C35.1987 1.77813 35.536 1.46687 35.935 1.46687ZM15.0764 8.28594C10.0494 8.28594 5.23119 10.3106 1.67882 13.9015C0.963676 14.5689 2.06343 15.6563 2.72295 14.929C6.00231 11.614 10.4424 9.75279 15.0764 9.75279C19.711 9.75279 24.1562 11.6135 27.4357 14.929C28.0997 15.6612 29.1893 14.5636 28.4799 13.9015C24.9275 10.31 20.104 8.28594 15.0764 8.28594ZM15.0764 12.8955C11.2567 12.8955 7.59851 14.429 4.90003 17.1571C4.1419 17.8014 5.32099 18.9244 5.93846 18.1846C8.3639 15.7326 11.6497 14.3551 15.0764 14.3551C18.5029 14.3551 21.7891 15.733 24.2145 18.1846C24.8871 18.8938 25.9558 17.8382 25.2601 17.1571C22.5617 14.4295 18.8959 12.8955 15.0764 12.8955ZM15.0764 17.4978C12.4647 17.4978 9.96568 18.5427 8.12128 20.4072C7.40921 21.0635 8.49325 22.1681 9.15967 21.4404C10.7311 19.8519 12.8577 18.9632 15.0764 18.9632C17.2955 18.9632 19.4276 19.8516 20.999 21.4404C21.6796 22.1575 22.744 21.0843 22.0431 20.4072C20.1987 18.5423 17.6885 17.4978 15.0764 17.4978ZM33.7335 21.2486H38.132V27.8444H33.7306L33.7335 21.2486ZM15.0764 22.1001C13.6719 22.1001 12.3274 22.6625 11.3368 23.6642C10.6168 24.3597 11.6918 25.4235 12.3809 24.6975C13.0984 23.9718 14.065 23.567 15.0764 23.567C16.0874 23.567 17.0604 23.9725 17.7777 24.6975C18.4669 25.4184 19.5353 24.3568 18.8176 23.6642C17.8272 22.6635 16.4803 22.1001 15.0764 22.1001ZM2.93492 29.3113H41.0668C41.8921 29.3113 42.5335 29.9636 42.5335 30.7767V38.0995C42.5335 38.924 41.8718 39.565 41.0668 39.565H2.93492C2.12117 39.565 1.46828 38.924 1.46828 38.0995V30.7767C1.46828 29.9636 2.10973 29.3113 2.93492 29.3113ZM6.5973 30.7767C5.37379 30.7767 4.40016 31.7667 4.40016 32.972C4.40016 34.1773 5.37476 35.1687 6.5973 35.1687C7.81986 35.1687 8.8016 34.1773 8.8016 32.972C8.8016 31.7667 7.82082 30.7767 6.5973 30.7767ZM12.4712 30.7767C11.2364 30.7767 10.2668 31.7667 10.2668 32.972C10.2668 34.1773 11.2505 35.1687 12.4712 35.1687C13.6918 35.1687 14.6683 34.1773 14.6683 32.972C14.6683 31.7667 13.7058 30.7767 12.4712 30.7767ZM18.3364 30.7767C17.1098 30.7767 16.132 31.7667 16.132 32.972C16.132 34.1773 17.1157 35.1687 18.3364 35.1687C19.557 35.1687 20.5335 34.1773 20.5335 32.972C20.5335 31.7667 19.5629 30.7767 18.3364 30.7767ZM6.5973 32.2364C6.98808 32.2364 7.33492 32.5586 7.33492 32.972C7.33492 33.3853 6.99382 33.7019 6.5973 33.7019C6.20079 33.7019 5.86684 33.3853 5.86684 32.972C5.86684 32.5586 6.20653 32.2364 6.5973 32.2364ZM12.4712 32.2364C12.8645 32.2364 13.2016 32.5586 13.2016 32.972C13.2016 33.3853 12.8676 33.7019 12.4712 33.7019C12.0746 33.7019 11.7335 33.3853 11.7335 32.972C11.7335 32.5586 12.0777 32.2364 12.4712 32.2364ZM18.3364 32.2364C18.7217 32.2364 19.0668 32.5586 19.0668 32.972C19.0668 33.3853 18.7357 33.7019 18.3364 33.7019C17.937 33.7019 17.5987 33.3853 17.5987 32.972C17.5987 32.5586 17.951 32.2364 18.3364 32.2364ZM22.7306 32.2364C21.7741 32.2364 21.7741 33.7019 22.7306 33.7019H29.3364C30.2929 33.7019 30.2929 32.2364 29.3364 32.2364H22.7306ZM32.632 32.2364C31.6756 32.2364 31.6756 33.7019 32.632 33.7019H34.4683C35.4248 33.7019 35.4248 32.2364 34.4683 32.2364H32.632ZM5.13207 41.0318H8.80016V42.4972H5.13207V41.0318ZM35.2001 41.0318H38.8669V42.4972H35.2001V41.0318Z" fill="#EB9633"/>
</g>
<defs>
<clipPath id="clip0_1_1117">
<rect width="44" height="43.9626" fill="white"/>
</clipPath>
</defs>
</svg>
