<svg width="30" height="30" viewBox="0 0 30 30" fill="none" xmlns="http://www.w3.org/2000/svg">
<circle cx="15" cy="15" r="15" fill="white"/>
<circle cx="15" cy="15" r="14.5" stroke="black" stroke-opacity="0.6"/>
<path d="M15 15.7822C16.8636 15.7822 18.5583 16.3251 19.8051 17.0902C20.4273 17.472 20.9593 17.9227 21.3436 18.4124C21.7216 18.8936 22 19.4694 22 20.0851C22 20.7462 21.6803 21.2672 21.2199 21.6388C20.7843 21.9909 20.2096 22.224 19.599 22.3868C18.3717 22.713 16.7337 22.8233 15 22.8233C13.2663 22.8233 11.6283 22.7138 10.401 22.3868C9.79044 22.224 9.21567 21.9909 8.78011 21.6388C8.31889 21.2664 8 20.7462 8 20.0851C8 19.4694 8.27844 18.8936 8.65644 18.4116C9.04067 17.9227 9.57189 17.4728 10.1949 17.0895C11.4417 16.3259 13.1372 15.7822 15 15.7822ZM15 7.17627C16.0314 7.17627 17.0206 7.5884 17.7499 8.322C18.4792 9.0556 18.8889 10.0506 18.8889 11.088C18.8889 12.1255 18.4792 13.1205 17.7499 13.8541C17.0206 14.5877 16.0314 14.9998 15 14.9998C13.9686 14.9998 12.9794 14.5877 12.2501 13.8541C11.5208 13.1205 11.1111 12.1255 11.1111 11.088C11.1111 10.0506 11.5208 9.0556 12.2501 8.322C12.9794 7.5884 13.9686 7.17627 15 7.17627Z" fill="black" fill-opacity="0.6"/>
</svg>
