<svg width="19" height="28" viewBox="0 0 19 28" fill="none" xmlns="http://www.w3.org/2000/svg">
<path d="M18.5709 25.4831C18.5709 26.7108 14.4113 27.7022 9.28547 27.7022C4.15969 27.7022 0 26.7108 0 25.4831C0 24.3863 3.33281 23.4834 7.70344 23.2978H10.8675C15.2423 23.4834 18.5709 24.3863 18.5709 25.4831Z" fill="black" fill-opacity="0.2"/>
<path d="M9.0022 0.297813C4.03031 0.297813 0 4.19209 0 9.00142C0 13.8108 9.0022 25.2978 9.0022 25.2978C9.0022 25.2978 18 13.8108 18 9.00142C18 4.19209 13.9741 0.297813 9.0022 0.297813ZM9.0022 14.7641C5.71107 14.7641 3.04473 12.1849 3.04473 9.00142C3.04473 5.8179 5.71107 3.23874 9.0022 3.23874C12.2933 3.23874 14.9597 5.8179 14.9597 9.00142C14.9597 12.1849 12.2933 14.7641 9.0022 14.7641Z" fill="#E82327"/>
</svg>
