<svg width="40" height="40" viewBox="0 0 40 40" fill="none" xmlns="http://www.w3.org/2000/svg">
<circle cx="19" cy="19" r="18" fill="#E8E8E8" stroke="#444444" stroke-width="2"/>
<path d="M19.4183 20.5789C21.9256 20.5789 24.2059 21.3095 25.8834 22.3389C26.7206 22.8526 27.4364 23.4589 27.9533 24.1179C28.4619 24.7653 28.8366 25.54 28.8366 26.3684C28.8366 27.2579 28.4065 27.9589 27.787 28.4589C27.2009 28.9326 26.4276 29.2463 25.6061 29.4653C23.9548 29.9042 21.7509 30.0526 19.4183 30.0526C17.0857 30.0526 14.8818 29.9053 13.2305 29.4653C12.409 29.2463 11.6356 28.9326 11.0496 28.4589C10.4291 27.9579 10 27.2579 10 26.3684C10 25.54 10.3746 24.7653 10.8832 24.1168C11.4002 23.4589 12.1149 22.8537 12.9532 22.3379C14.6307 21.3105 16.912 20.5789 19.4183 20.5789ZM19.4183 9C20.806 9 22.1369 9.55451 23.1181 10.5415C24.0994 11.5286 24.6507 12.8673 24.6507 14.2632C24.6507 15.659 24.0994 16.9977 23.1181 17.9848C22.1369 18.9718 20.806 19.5263 19.4183 19.5263C18.0306 19.5263 16.6997 18.9718 15.7184 17.9848C14.7372 16.9977 14.1859 15.659 14.1859 14.2632C14.1859 12.8673 14.7372 11.5286 15.7184 10.5415C16.6997 9.55451 18.0306 9 19.4183 9Z" fill="#444444"/>
</svg>
